HIERARCHY
ROOT ui
{
	 OFFSET 0 0 0
	 CHANNELS 3 XPosition YPosition Z Position
	 EndSite
	 {
	 OFFSET 0 -1 0
	 }
}
ROOT li
{
	 OFFSET 0 0 0
	 CHANNELS 3 XPosition YPosition Z Position
	 EndSite
	 {
	 OFFSET 0 -1 0
	 }
}
ROOT ul
{
	 OFFSET 0 0 0
	 CHANNELS 3 XPosition YPosition Z Position
	 EndSite
	 {
	 OFFSET 0 -1 0
	 }
}
ROOT ll
{
	 OFFSET 0 0 0
	 CHANNELS 3 XPosition YPosition Z Position
	 EndSite
	 {
	 OFFSET 0 -1 0
	 }
}
ROOT tt
{
	 OFFSET 0 0 0
	 CHANNELS 3 XPosition YPosition Z Position
	 EndSite
	 {
	 OFFSET 0 -1 0
	 }
}
ROOT tb
{
	 OFFSET 0 0 0
	 CHANNELS 3 XPosition YPosition Z Position
	 EndSite
	 {
	 OFFSET 0 -1 0
	 }
}
ROOT td
{
	 OFFSET 0 0 0
	 CHANNELS 3 XPosition YPosition Z Position
	 EndSite
	 {
	 OFFSET 0 -1 0
	 }
}
ROOT v
{
	 OFFSET 0 0 0
	 CHANNELS 3 XPosition YPosition Z Position
	 EndSite
	 {
	 OFFSET 0 -1 0
	 }
}
ROOT bn
{
	 OFFSET 0 0 0
	 CHANNELS 3 XPosition YPosition Z Position
	 EndSite
	 {
	 OFFSET 0 -1 0
	 }
}
MOTION
Frames: 13
Frame Time: 0.002
-0.010415582656860352	0.0015578229427337647	0		0.4009856262207031	-2.389676025390625	0		-0.9605155029296875	-0.16335171508789062	0		-0.6914148559570312	-2.351215087890625	0		1.7417130126953124	-0.52840673828125	0		3.37130419921875	-0.35032427978515623	0		4.5055302734375	-0.3967618408203125	0		5.95590234375	0.5036920776367187	0		-0.07064652252197266	5.958578125	0		
0.006815855026245117	0.002017045021057129	0		0.38933688354492185	-2.382547119140625	0		-0.96437353515625	-0.16639080810546875	0		-0.735914306640625	-2.337305908203125	0		1.7547061767578125	-0.5378720092773438	0		3.35191455078125	-0.33304644775390624	0		4.5202705078125	-0.37429141235351565	0		5.951935546875	0.4955735778808594	0		-0.08656964874267578	5.94981005859375	0		
-0.005018197059631348	0.0011569390296936035	0		0.4102547607421875	-2.39317919921875	0		-0.9754197998046875	-0.17625990295410157	0		-0.6869801635742188	-2.347577392578125	0		1.7514666748046874	-0.5559588012695312	0		3.340726318359375	-0.34896676635742185	0		4.5111279296875	-0.388273193359375	0		5.9521279296875	0.4953605651855469	0		-0.08631082916259766	5.9496708984375	0		
0.0010239200592041015	-0.004116076946258545	0		0.39220303344726565	-2.400896484375	0		-0.9783541259765625	-0.1803108673095703	0		-0.756643798828125	-2.33807177734375	0		1.7598941650390625	-0.5873170166015625	0		3.34862353515625	-0.36032723999023436	0		4.5232568359375	-0.38974459838867187	0		5.94810888671875	0.48724615478515626	0		-0.08607496643066406	5.94953759765625	0		
-0.004721537113189698	8.954110145568848E-4	0		0.4280181579589844	-2.4138662109375	0		-0.96645703125	-0.19070285034179688	0		-0.7436815185546874	-2.3444912109375	0		1.743793701171875	-0.5970907592773438	0		3.354800048828125	-0.35863848876953125	0		4.5155302734375	-0.38374530029296877	0		5.95243701171875	0.49494625854492186	0		-0.08488522338867187	5.94838818359375	0		
0.0025305280685424805	0.006611926078796387	0		0.39343704223632814	-2.39917626953125	0		-0.966345703125	-0.19080860900878907	0		-0.7374597778320312	-2.33874169921875	0		1.7742371826171874	-0.625948486328125	0		3.3618837890625	-0.35996392822265627	0		4.52663623046875	-0.38417962646484377	0		5.9567431640625	0.5026545104980469	0		-0.07044061279296875	5.95894091796875	0		
0.00750570011138916	0.0013881750106811523	0		0.42816250610351564	-2.414103759765625	0		-0.977485595703125	-0.2006444854736328	0		-0.7286329345703125	-2.3490478515625	0		1.7426763916015624	-0.653347412109375	0		3.3528115234375	-0.3669034118652344	0		4.53565185546875	-0.38755599975585936	0		5.9526572265625	0.4945648498535156	0		-0.08452342224121094	5.9481640625	0		
0.0014413690567016601	-0.0045673041343688965	0		0.39819110107421873	-2.4145048828125	0		-0.9805065307617188	-0.204658203125	0		-0.7306345825195313	-2.351088623046875	0		1.7810068359375	-0.6853704223632813	0		3.378967529296875	-0.36365231323242186	0		4.54355517578125	-0.39489590454101564	0		5.955947265625	0.503319580078125	0		-0.08339749145507812	5.94704443359375	0		
-0.004384040832519531	4.856640100479126E-4	0		0.42102426147460936	-2.423131591796875	0		-0.9845220947265625	-0.2076378936767578	0		-0.7347230834960937	-2.35607080078125	0		1.7593348388671874	-0.715978271484375	0		3.356791259765625	-0.3732619323730469	0		4.5436064453125	-0.39503720092773437	0		5.9518232421875	0.49525689697265624	0		-0.08424547576904297	5.947982421875	0		
0.001535254955291748	-0.004727392196655273	0		0.4059683837890625	-2.4258583984375	0		-0.97174755859375	-0.219001953125	0		-0.72390234375	-2.364391845703125	0		1.7845147705078126	-0.7526712036132812	0		3.37642138671875	-0.3908379516601562	0		4.563564453125	-0.398630615234375	0		5.96084130859375	0.49390426635742185	0		-0.06795646667480469	5.95553271484375	0		
0.010787113189697266	0.004998209953308105	0		0.433931884765625	-2.4275791015625	0		-0.9645676879882813	-0.2122184295654297	0		-0.7546878051757813	-2.354721435546875	0		1.77903662109375	-0.7736279907226562	0		3.38848095703125	-0.3892159729003906	0		4.55572314453125	-0.3925538635253906	0		5.965052734375	0.5016847229003907	0		-0.06592091369628907	5.95342626953125	0		
0.0028147640228271486	0.006138800144195556	0		0.4210081176757812	-2.423326171875	0		-0.9717297973632812	-0.21908982849121095	0		-0.6988172607421875	-2.36007177734375	0		1.80596923828125	-0.8193350219726563	0		3.377388671875	-0.3930357666015625	0		4.57455224609375	-0.40008676147460936	0		5.95608544921875	0.5027922973632812	0		-0.06781508636474609	5.9554267578125	0		
0.0015394209623336792	-0.004866117000579834	0		0.42666363525390627	-2.436498046875	0		-0.9758186645507813	-0.22201844787597655	0		-0.728057861328125	-2.3684150390625	0		1.794939453125	-0.8621353149414063	0		3.36194970703125	-0.4107388916015625	0		4.57453076171875	-0.40015646362304685	0		5.95188525390625	0.4948069458007813	0		-0.0820369873046875	5.94472705078125	0		
